<?xml version="1.0" encoding="utf-8"?>
<!-- Generator: Adobe Illustrator 18.1.1, SVG Export Plug-In . SVG Version: 6.00 Build 0)  -->
<svg version="1.1" id="Layer_1" xmlns="http://www.w3.org/2000/svg" xmlns:xlink="http://www.w3.org/1999/xlink" x="0px" y="0px"
	 width="100px" height="100px" viewBox="-561 347 100 100" enable-background="new -561 347 100 100" xml:space="preserve">
<g>
	<path fill="#512200" stroke="#512200" stroke-miterlimit="10" d="M-490,389.3c0.7,2.6,1.1,5.5,1.1,8.4c0,0.3,0,0.7,0,1l3.4,1.3
		l2.8-2.4l2.2,2.6l-4.3,3.5l-4.4-1.8c-0.5,3.9-1.7,7.6-3.4,10.7l0.6-0.8l3.3,1.9l3.2-1.9l1.8,2.9l-4.7,2.9l-5.2-3.1
		c-4.1,6.3-10.4,10.4-17.5,10.4c-7.1,0-13.4-4.1-17.5-10.4l-5.1,3l-4.7-2.9l1.8-2.9l3.2,1.9l3.3-1.9l0.2,0.3
		c-1.6-3-2.7-6.5-3.1-10.2l-4.3,1.7l-4.3-3.5l2.2-2.6l2.8,2.4l3.3-1.3c0-0.4,0-0.7,0-1.1c0-2.9,0.4-5.7,1.1-8.4l-5.6-0.2l-2.4-4.9
		l3-1.5l1.6,3.3l3.8,0.2l0.1,1.1c2.3-6.8,6.8-12.3,12.4-15c0.1-2.1,1.8-3.8,4-3.8h9.3c2.2,0,4,1.8,4,4c0,0.1,0,0.2,0,0.3
		c5.3,2.9,9.5,8.3,11.6,14.9l0.1-1.5l3.8-0.2l1.6-3.3l3,1.5l-2.4,4.9L-490,389.3z"/>
	<polygon fill="#512200" stroke="#512200" stroke-miterlimit="10" points="-499.8,365 -500.2,366.2 -501,366.5 -502.3,366.9 
		-503.5,367.6 -505.2,368.5 -505.2,367.6 -503.3,366.2 -502,365.8 -500.8,365 -500,363.6 -498.8,363.1 -499,364.4 	"/>
	<polygon fill="#512200" stroke="#512200" stroke-miterlimit="10" points="-519,366.9 -520.3,366.5 -521,366.2 -521.5,365 
		-522.2,364.4 -522.5,363.1 -521.2,363.6 -520.5,365 -519.3,365.8 -518,366.2 -516,367.6 -516,368.5 -517.8,367.6 	"/>
</g>
</svg>
